<svg width="512" height="512" viewBox="0 0 512 512" fill="none" xmlns="http://www.w3.org/2000/svg">
<circle cx="256" cy="256" r="256" fill="#16213D"/>
<path d="M181.101 188.025C179.929 188.26 178.006 188.448 176.787 188.448C175.567 188.495 174.442 188.682 174.301 188.964C174.16 189.198 173.41 189.433 172.66 189.433C171.909 189.433 171.159 189.621 171.018 189.902C170.878 190.137 170.221 190.371 169.611 190.371C169.002 190.371 168.345 190.559 168.204 190.84C168.064 191.075 167.501 191.31 167.032 191.31C166.516 191.31 165.39 191.732 164.452 192.248C163.514 192.764 162.576 193.186 162.295 193.186C162.061 193.186 159.903 194.5 157.511 196.095C148.976 201.773 141.707 210.734 137.814 220.399C136.735 223.121 136.595 223.496 136.313 224.857C136.172 225.607 135.797 227.296 135.516 228.61C135.141 230.205 135 239.964 135 258.404C135 284.772 135.188 290.027 136.126 290.965C136.36 291.247 136.548 291.904 136.548 292.514C136.548 293.077 136.782 294.156 137.064 294.859C137.345 295.563 137.767 296.595 137.955 297.112C139.408 300.818 142.457 306.402 144.661 309.264C147.897 313.532 156.667 321.744 157.933 321.744C158.074 321.744 159.106 322.353 160.232 323.152C161.357 323.903 162.483 324.559 162.764 324.559C163.045 324.559 163.983 324.982 164.921 325.497C165.859 326.013 166.985 326.436 167.501 326.436C167.97 326.436 168.486 326.622 168.626 326.858C168.767 327.092 169.471 327.374 170.174 327.514C170.924 327.607 172.66 328.03 174.067 328.452C175.474 328.828 179.507 329.298 182.977 329.437C186.448 329.627 189.543 330.003 189.872 330.283C190.34 330.659 190.481 335.211 190.481 352.101C190.481 364.533 190.669 373.355 190.903 373.261C191.138 373.168 194.139 370.353 197.61 366.973C203.238 361.532 207.412 358.058 212.524 354.587C213.415 353.978 214.259 353.319 214.4 353.18C214.775 352.71 218.996 349.895 219.324 349.895C219.511 349.895 220.262 349.473 220.965 348.957C222.748 347.689 232.315 342.671 235.504 341.31C236.395 340.934 238.13 340.182 239.35 339.62C240.569 339.104 241.788 338.635 242.07 338.635C242.351 338.635 242.961 338.399 243.477 338.166C243.993 337.929 244.837 337.51 245.353 337.227C245.869 336.991 246.713 336.758 247.182 336.758C247.698 336.758 248.26 336.522 248.401 336.289C248.542 336.053 249.198 335.82 249.808 335.82C250.418 335.82 251.027 335.633 251.168 335.397C251.309 335.164 252.106 334.881 252.95 334.741C253.794 334.599 255.436 334.226 256.608 333.943C265.801 331.644 271.053 330.845 281.465 330.189C297.316 329.158 302.804 328.546 303.319 327.797C303.46 327.561 304.07 327.374 304.68 327.374C305.289 327.374 305.946 327.138 306.087 326.905C306.227 326.622 306.79 326.436 307.306 326.436C307.775 326.436 308.572 326.249 309.041 326.013C309.463 325.78 310.917 325.122 312.183 324.512C318.186 321.697 325.315 315.831 329.63 310.108C331.131 308.138 332.631 305.979 333.007 305.322C335.538 300.677 337.274 297.112 337.274 296.361C337.274 295.892 337.461 295.423 337.697 295.282C337.93 295.141 338.212 294.437 338.352 293.733C338.541 292.983 338.868 291.341 339.15 290.074C340.275 285.1 340.604 275.294 340.417 253.946C340.275 238.416 340.041 231.191 339.666 229.548C339.337 228.235 338.821 226.358 338.588 225.326C338.352 224.294 337.93 223.074 337.697 222.651C337.461 222.182 337.274 221.525 337.274 221.197C337.274 220.822 336.992 219.93 336.619 219.179C336.243 218.429 335.727 217.303 335.445 216.646C332.913 210.593 326.159 202.383 319.64 197.503C316.217 194.922 309.463 191.31 308.103 191.31C307.681 191.31 307.165 191.075 307.024 190.84C306.884 190.559 306.227 190.371 305.618 190.371C305.008 190.371 304.398 190.184 304.257 189.949C304.117 189.714 303.179 189.386 302.241 189.245C301.256 189.058 299.192 188.682 297.645 188.401C294.268 187.791 184.384 187.462 181.101 188.025Z" fill="white"/>
<path d="M218.019 138.235C216.987 138.47 215.158 138.658 213.939 138.658C212.72 138.704 211.594 138.892 211.453 139.174C211.313 139.408 210.328 139.643 209.343 139.643C208.358 139.643 207.373 139.83 207.232 140.112C207.092 140.347 206.529 140.581 206.013 140.581C205.544 140.581 204.747 140.769 204.278 141.003C203.856 141.238 202.965 141.613 202.308 141.895C196.164 144.382 190.537 148.229 185.518 153.296C181.438 157.472 178.718 161.272 176.467 165.917C175.435 168.123 174.356 170.281 174.122 170.703C173.887 171.172 173.7 171.97 173.7 172.439C173.7 172.955 173.512 173.471 173.278 173.612C173.043 173.753 172.762 174.55 172.621 175.395C172.481 176.239 172.246 177.459 172.012 178.069C171.683 179.148 171.73 179.148 173.043 178.773C175.107 178.116 297.184 178.304 300.092 178.961C306.752 180.415 306.798 180.462 311.817 182.574C321.618 186.749 331.419 194.491 337.376 202.889C341.221 208.238 344.458 214.478 345.865 219.17C346.147 220.202 346.569 221.422 346.802 221.845C347.038 222.314 347.225 223.252 347.225 224.003C347.225 224.707 347.411 225.504 347.647 225.739C348.445 226.583 348.725 231.838 349.008 253.046L349.337 274.3L350.508 273.69C351.163 273.314 352.197 272.751 352.853 272.376C354.399 271.485 360.732 266.417 362.468 264.681C364.391 262.758 367.86 258.535 367.86 258.113C367.86 257.925 368.236 257.221 368.752 256.564C370.159 254.547 372.035 251.075 373.019 248.729C373.348 247.931 373.771 246.946 374.004 246.524C374.24 246.055 374.426 245.257 374.426 244.788C374.426 244.272 374.613 243.756 374.848 243.615C375.082 243.474 375.364 242.536 375.551 241.597C375.693 240.612 376.069 238.032 376.395 235.826C377.193 230.478 377.193 189.471 376.442 183.512C375.74 178.163 375.411 176.239 374.942 175.067C374.709 174.55 374.286 173.284 374.004 172.251C373.675 171.219 373.019 169.53 372.55 168.498C372.081 167.466 371.566 166.293 371.426 165.917C369.69 161.319 362.748 152.921 357.074 148.557C355.903 147.666 354.868 146.821 354.729 146.681C353.744 145.695 345.349 141.52 344.364 141.52C343.895 141.52 343.38 141.285 343.24 141.05C343.097 140.769 342.442 140.581 341.833 140.581C341.221 140.581 340.566 140.347 340.426 140.112C340.283 139.83 339.535 139.643 338.83 139.643C338.128 139.643 337.376 139.455 337.094 139.221C336.861 138.986 335.407 138.658 333.86 138.47C329.686 138.001 220.223 137.813 218.019 138.235Z" fill="white"/>
</svg>
