<svg width="1024" height="1024" viewBox="0 0 1024 1024" fill="none" xmlns="http://www.w3.org/2000/svg">
<circle cx="512" cy="512" r="512" fill="#16213D"/>
<path d="M362.203 376.051C359.858 376.52 356.012 376.895 353.574 376.895C351.135 376.989 348.884 377.364 348.602 377.927C348.321 378.397 346.82 378.866 345.319 378.866C343.819 378.866 342.318 379.241 342.036 379.804C341.755 380.273 340.442 380.743 339.223 380.743C338.003 380.743 336.69 381.118 336.409 381.681C336.127 382.15 335.002 382.619 334.064 382.619C333.032 382.619 330.781 383.464 328.905 384.496C327.029 385.528 325.153 386.373 324.59 386.373C324.121 386.373 319.806 389 315.023 392.191C297.952 403.545 283.413 421.468 275.628 440.799C273.471 446.241 273.189 446.992 272.626 449.713C272.345 451.215 271.595 454.593 271.032 457.22C270.281 460.411 270 479.929 270 516.807C270 569.544 270.375 580.054 272.251 581.93C272.72 582.493 273.095 583.807 273.095 585.027C273.095 586.153 273.564 588.311 274.127 589.719C274.69 591.127 275.534 593.191 275.909 594.223C278.817 601.636 284.914 612.803 289.322 618.527C295.794 627.063 313.334 643.488 315.867 643.488C316.148 643.488 318.212 644.706 320.463 646.303C322.714 647.807 324.965 649.118 325.528 649.118C326.091 649.118 327.967 649.963 329.843 650.995C331.719 652.027 333.97 652.872 335.002 652.872C335.94 652.872 336.971 653.245 337.253 653.717C337.534 654.183 338.941 654.748 340.348 655.028C341.849 655.215 345.319 656.06 348.133 656.905C350.947 657.657 359.014 658.595 365.955 658.875C372.896 659.254 379.086 660.006 379.743 660.565C380.681 661.317 380.962 670.421 380.962 704.203C380.962 729.067 381.338 746.709 381.807 746.523C382.276 746.336 388.279 740.706 395.22 733.945C406.475 723.063 414.823 716.116 425.047 709.174C426.829 707.956 428.518 706.639 428.799 706.359C429.549 705.421 437.991 699.791 438.648 699.791C439.023 699.791 440.524 698.945 441.931 697.914C445.495 695.378 464.63 685.342 471.008 682.62C472.79 681.868 476.261 680.364 478.699 679.239C481.138 678.208 483.577 677.269 484.14 677.269C484.702 677.269 485.922 676.797 486.953 676.331C487.985 675.859 489.674 675.02 490.705 674.454C491.737 673.982 493.425 673.516 494.363 673.516C495.395 673.516 496.521 673.044 496.802 672.578C497.084 672.105 498.397 671.639 499.616 671.639C500.835 671.639 502.055 671.266 502.336 670.794C502.618 670.328 504.212 669.762 505.901 669.483C507.589 669.197 510.872 668.451 513.217 667.886C531.601 663.287 542.106 661.69 562.929 660.379C594.633 658.315 605.607 657.091 606.639 655.594C606.92 655.121 608.14 654.748 609.359 654.748C610.578 654.748 611.892 654.276 612.173 653.81C612.454 653.245 613.58 652.872 614.612 652.872C615.55 652.872 617.144 652.499 618.082 652.027C618.926 651.56 621.834 650.243 624.367 649.025C636.373 643.395 650.63 631.662 659.259 620.216C662.261 616.275 665.262 611.958 666.013 610.645C671.076 601.355 674.548 594.223 674.548 592.722C674.548 591.783 674.921 590.845 675.393 590.563C675.859 590.282 676.424 588.874 676.704 587.467C677.083 585.965 677.735 582.681 678.3 580.147C680.549 570.201 681.207 550.589 680.834 507.893C680.549 476.832 680.083 462.381 679.331 459.097C678.673 456.47 677.642 452.716 677.176 450.652C676.704 448.587 675.859 446.147 675.393 445.303C674.921 444.364 674.548 443.051 674.548 442.394C674.548 441.643 673.983 439.86 673.237 438.359C672.486 436.857 671.455 434.605 670.89 433.292C665.827 421.187 652.318 404.765 639.28 395.006C632.433 389.845 618.926 382.619 616.206 382.619C615.362 382.619 614.33 382.15 614.049 381.681C613.768 381.118 612.454 380.743 611.235 380.743C610.016 380.743 608.796 380.367 608.515 379.898C608.234 379.429 606.358 378.772 604.482 378.49C602.512 378.115 598.385 377.364 595.289 376.801C588.536 375.581 368.769 374.925 362.203 376.051Z" fill="white"/>
<path d="M436.038 276.47C433.975 276.94 430.317 277.315 427.878 277.315C425.439 277.409 423.188 277.784 422.907 278.347C422.625 278.816 420.656 279.286 418.686 279.286C416.716 279.286 414.746 279.661 414.465 280.224C414.184 280.693 413.058 281.162 412.026 281.162C411.088 281.162 409.494 281.538 408.556 282.007C407.712 282.476 405.929 283.227 404.616 283.79C392.329 288.763 381.073 296.458 371.037 306.592C362.876 314.944 357.436 322.545 352.934 331.835C350.87 336.245 348.713 340.562 348.244 341.406C347.775 342.344 347.4 343.94 347.4 344.878C347.4 345.91 347.025 346.943 346.556 347.224C346.087 347.506 345.524 349.101 345.242 350.79C344.961 352.479 344.492 354.919 344.023 356.139C343.366 358.297 343.46 358.297 346.087 357.546C350.214 356.232 594.368 356.608 600.184 357.922C613.503 360.831 613.597 360.924 623.633 365.147C643.237 373.499 662.838 388.982 674.752 405.779C682.442 416.476 688.915 428.957 691.729 438.34C692.294 440.405 693.139 442.845 693.605 443.689C694.077 444.628 694.45 446.504 694.45 448.006C694.45 449.413 694.823 451.008 695.294 451.478C696.891 453.167 697.45 463.677 698.015 506.091L698.674 548.6L701.016 547.38C702.326 546.629 704.395 545.503 705.705 544.752C708.799 542.969 721.465 532.835 724.937 529.363C728.782 525.516 735.721 517.07 735.721 516.226C735.721 515.85 736.472 514.443 737.503 513.129C740.317 509.094 744.069 502.15 746.038 497.458C746.697 495.863 747.541 493.892 748.007 493.048C748.479 492.109 748.852 490.514 748.852 489.576C748.852 488.543 749.225 487.511 749.697 487.23C750.163 486.948 750.728 485.072 751.101 483.195C751.386 481.224 752.138 476.063 752.791 471.653C754.387 460.955 754.387 378.941 752.884 367.024C751.48 356.326 750.821 352.479 749.883 350.133C749.417 349.101 748.573 346.567 748.007 344.503C747.349 342.438 746.038 339.06 745.1 336.996C744.162 334.931 743.131 332.585 742.851 331.835C739.379 322.639 725.496 305.842 714.147 297.115C711.805 295.332 709.737 293.643 709.457 293.361C707.488 291.391 690.698 283.039 688.729 283.039C687.791 283.039 686.759 282.57 686.48 282.101C686.194 281.538 684.884 281.162 683.666 281.162C682.442 281.162 681.132 280.693 680.852 280.224C680.567 279.661 679.069 279.286 677.659 279.286C676.255 279.286 674.752 278.91 674.187 278.441C673.721 277.972 670.814 277.315 667.72 276.94C659.372 276.001 440.447 275.626 436.038 276.47Z" fill="white"/>
</svg>
